<?xml version="1.0" standalone="no"?><!DOCTYPE svg PUBLIC "-//W3C//DTD SVG 1.1//EN" "http://www.w3.org/Graphics/SVG/1.1/DTD/svg11.dtd"><svg t="1744707549605" class="icon" viewBox="0 0 1024 1024" version="1.1" xmlns="http://www.w3.org/2000/svg" p-id="2643" xmlns:xlink="http://www.w3.org/1999/xlink" width="200" height="200"><path d="M512 848c-28.672 0-56.576-2.624-83.776-7.104L232 960l0-198.272C129.664 689.856 64 579.776 64 456 64 239.488 264.576 64 512 64c247.36 0 448 175.488 448 392S759.36 848 512 848zM512 120c-216.512 0-392 150.464-392 336 0 113.856 66.24 214.336 167.296 275.072l-1.792 129.92 131.84-79.232c30.4 6.464 61.952 10.24 94.656 10.24 216.512 0 392-150.4 392-336C904 270.464 728.512 120 512 120zM736 512c-30.912 0-56-25.088-56-56S705.088 400 736 400s56 25.088 56 56S766.912 512 736 512zM512 512C481.088 512 456 486.912 456 456S481.088 400 512 400s56 25.088 56 56S542.912 512 512 512zM288 512C257.088 512 232 486.912 232 456S257.088 400 288 400s56 25.088 56 56S318.912 512 288 512z" p-id="2644"></path></svg>